<?xml version="1.0" encoding="UTF-8"?>
<svg id="_レイヤー_1" data-name="レイヤー_1" xmlns="http://www.w3.org/2000/svg" version="1.1" viewBox="0 0 595.28 841.89">
  <!-- Generator: Adobe Illustrator 29.0.1, SVG Export Plug-In . SVG Version: 2.1.0 Build 192)  -->
  <defs>
    <style>
      .st0 {
        fill: #e6d0b9;
      }

      .st1 {
        fill: #d1c64e;
      }

      .st2 {
        fill: #f0872f;
      }

      .st3 {
        fill: #414144;
      }

      .st4 {
        fill: #b2c866;
      }

      .st5 {
        fill: #fce3ca;
      }
    </style>
  </defs>
  <path class="st0" d="M355.86,478.78h-116.52v-.9c0-2.43-.11-5.22-.23-8.16-.5-12.42-1.12-27.87,5.87-34.86,4.12-4.13,15.9-12.33,33.88-16.93l.44-.11.19.16c3.65-3.99,5.5-8.81,5.5-14.32v-2.07h25.21v2.07c0,5.46,1.86,10.27,5.54,14.29l.15-.12.44.11c17.98,4.6,29.76,12.81,33.88,16.93,7,6.99,6.37,22.45,5.87,34.87-.12,2.94-.23,5.73-.23,8.16v.9Z"/>
  <path class="st4" d="M355.86,490.42h-116.52v-12.54c0-2.43-.11-5.22-.23-8.16-.5-12.42-1.12-27.87,5.87-34.86,4.12-4.13,15.9-12.33,33.88-16.93l.44-.11,17.79,20.68,18.81-20.68.44.11c17.98,4.6,29.76,12.81,33.88,16.93,7,6.99,6.37,22.45,5.87,34.87-.12,2.94-.23,5.73-.23,8.16v12.54Z"/>
  <rect class="st1" x="264.74" y="448.59" width="62.5" height="55" rx="12" ry="12"/>
  <path class="st5" d="M297.59,418.6c-13.56,0-24.08-13.06-28.32-25.49-2.98.33-5.35-2.91-5.35-7.03,0-2.8,1.15-5.28,2.93-6.39,0-.23-.01-.43-.01-.63,0-17.34,12.36-29,30.76-29s30.76,11.66,30.76,29c0,.21,0,.41,0,.62,1.78,1.11,2.94,3.59,2.94,6.41,0,4.13-2.38,7.39-5.37,7.02-4.24,12.43-14.76,25.49-28.33,25.49Z"/>
  <path class="st2" d="M268.35,367.46s27.26,1.7,48.56-21.3c0,0-1.46-3.41-22.2-3.41-26.1,0-26.36,24.7-26.36,24.7Z"/>
  <path class="st3" d="M330.97,371.77c-3.25-23.93-11.04-33.7-33.95-33.7-18.89,0-29.56,9.76-32.81,33.7-4.08,30,18.1-8.64,33.37-8.64s37.45,38.64,33.38,8.64Z"/>
  <path class="st5" d="M271.69,383.68c1.22,4.68.29,8.97-2.08,9.58-2.36.61-5.26-2.68-6.48-7.36-1.22-4.68-.29-8.97,2.08-9.58,2.36-.61,5.26,2.68,6.48,7.36Z"/>
  <path class="st5" d="M323.9,383.7c1.01-4.73,3.76-8.15,6.14-7.64,2.39.51,3.51,4.75,2.5,9.48-1,4.73-3.76,8.15-6.14,7.64-2.39-.51-3.51-4.75-2.5-9.48Z"/>
  <path class="st3" d="M312.44,360.19s-18.58-16.86-27.08-5.86c-8.51,11-2.94,20.36-14.09,22.78,0,0,10.82,3,25-3.3,15.32-6.81,16.17-13.62,16.17-13.62Z"/>
  <path class="st3" d="M324.44,363.86s-18.58-16.86-27.08-5.86c-8.51,11-2.94,20.36-14.09,22.78,0,0,10.82,3,25-3.3,15.32-6.81,16.17-13.62,16.17-13.62Z"/>
</svg>