<svg width="275" height="229" viewBox="0 0 275 229" fill="none" xmlns="http://www.w3.org/2000/svg">
<path d="M1.67078 227.454C0.920596 226.704 1.13277 224.395 1.13277 224.395C0.511403 214.747 0.662956 212.763 10.9913 213.801L10.6579 127.422C9.45303 125.704 1.14035 127.816 1.14035 125.575V113.459C1.14035 113.376 2.19364 112.323 2.27699 112.323H28.4199V60.8309H16.2956C15.0756 54.3792 15.0756 6.71853 16.2956 0.251709H259.159C259.243 0.251709 260.296 1.30427 260.296 1.38757V59.695C260.296 59.7783 259.243 60.8309 259.159 60.8309H247.414V112.323H273.557C273.64 112.323 274.693 113.376 274.693 113.459V125.196C274.693 125.196 274.549 126.718 273.178 126.718H267.116V213.793C277.224 212.635 274.481 216.595 274.693 224.395C274.693 224.395 274.784 226.03 273.526 227.287C272.269 228.544 272.223 228.938 271.2 228.938H4.61091C3.26967 228.938 2.42097 228.211 1.67078 227.454ZM254.976 4.78757H20.8271V56.2798H254.976V4.78757ZM242.094 60.8233H33.7091V112.316H68.1874C68.2707 112.316 69.324 113.368 69.324 113.451V125.567C69.324 127.551 61.7464 126.309 61.7464 126.703V213.786H66.3005C66.687 213.407 65.8535 206.895 66.4218 205.199C67.2023 202.881 71.3169 203.419 71.5746 203.154C72.6506 202.041 69.3089 193.249 79.1825 195.612V152.449C78.6445 151.881 74.2268 154.751 72.734 151.684C72.1202 150.427 72.0292 137.895 72.4991 136.312C73.0068 134.624 76.3106 133.39 77.9095 132.632C97.0734 123.553 118.291 116.556 137.773 107.961L201.759 134.45C202.979 135.654 203.092 148.337 202.668 150.533C201.971 154.161 198.144 152.919 198.144 153.206V195.612C198.144 195.862 201.562 195.067 203.145 196.293C205.169 197.868 203.774 202.791 204.206 203.184C204.502 203.457 208.025 202.419 209.139 204.691C210.132 206.705 209.079 213.354 209.51 213.786H216.338V127.831C216.338 125.62 206.487 127.771 206.487 125.56V113.444C206.487 113.361 207.54 112.308 207.624 112.308H242.102V60.8157L242.094 60.8233ZM197.257 138.19C177.192 130.186 157.611 120.774 137.159 113.777L78.1292 137.986L77.667 146.391C97.9069 139.152 117.306 129.581 137.205 121.41L196.348 146.316C197.795 146.641 197.273 146.308 197.394 145.271C197.53 144.127 197.606 138.736 197.265 138.183L197.257 138.19ZM6.42955 122.16H63.6408C65.1866 122.16 65.1866 116.859 63.6408 116.859H6.42955V122.16ZM211.784 122.16H268.995C270.541 122.16 270.541 116.859 268.995 116.859H211.784V122.16ZM18.5538 126.703C18.0082 126.802 15.5227 126.552 15.5227 126.703V213.786C15.5227 213.937 18.5538 213.937 18.5538 213.786V126.703ZM29.9203 126.703H23.8581V213.786H29.9203V126.703ZM37.4979 126.703C36.9523 126.802 34.4668 126.552 34.4668 126.703V213.786C34.4668 213.937 37.4979 213.937 37.4979 213.786V126.703ZM48.8644 126.703H42.8023V213.786H48.8644V126.703ZM56.442 126.703C55.8964 126.802 53.411 126.552 53.411 126.703V213.786C53.411 213.937 56.442 213.937 56.442 213.786V126.703ZM181.473 195.612V146.013L137.773 126.877L95.088 144.877V195.612H118.579V157.371C118.579 155.44 124.686 148.519 126.535 147.149C128.384 145.778 135.863 141.939 137.902 141.946C143.388 141.961 157.225 151.525 157.225 157.371V195.612H181.473ZM223.908 126.703C223.362 126.802 220.877 126.552 220.877 126.703V213.786C220.877 213.937 223.908 213.937 223.908 213.786V126.703ZM235.275 126.703C234.009 126.703 228.455 126.264 228.455 127.839V213.786H235.275V126.703ZM242.852 126.703C242.307 126.802 239.821 126.552 239.821 126.703V213.786C239.821 213.937 242.852 213.937 242.852 213.786V126.703ZM254.219 126.703C252.953 126.703 247.399 126.264 247.399 127.839V213.786H254.219V126.703ZM261.796 126.703C261.251 126.802 258.765 126.552 258.765 126.703V213.786C258.765 213.937 261.796 213.937 261.796 213.786V126.703ZM90.5414 147.149C89.723 147.391 83.7215 149.064 83.7215 149.42V196.369C84.987 196.369 90.5414 196.808 90.5414 195.233V147.149ZM152.678 195.612V159.643C152.678 155.289 141.979 147.133 137.887 147.232C134.727 147.308 123.883 154.66 123.883 158.129V195.612H152.678ZM192.84 150.178L186.778 147.906V195.612H192.84V150.178ZM198.902 200.913H76.9017C76.7501 200.913 76.7501 203.942 76.9017 203.942H198.902C199.053 203.942 199.008 201.019 198.902 200.913ZM204.964 208.485H71.5973V215.3H203.827C205.403 215.3 204.964 209.75 204.964 208.485ZM64.7774 219.086H6.42955V224.387H63.6408C64.982 224.387 64.9062 220.154 64.7774 219.086ZM270.132 219.086H211.784V224.387H268.995C270.336 224.387 270.26 220.154 270.132 219.086ZM206.479 219.844H69.324V224.387H206.479V219.844Z" fill="#3E3E3E"/>
<path d="M242.095 60.8232V112.316H207.616C207.533 112.316 206.48 113.368 206.48 113.451V125.567C206.48 127.778 216.331 125.628 216.331 127.839V213.786H209.503C209.071 213.354 210.124 206.705 209.132 204.699C208.018 202.427 204.494 203.464 204.199 203.192C203.774 202.798 205.169 197.876 203.138 196.301C201.554 195.067 198.137 195.869 198.137 195.619V153.214C198.137 152.926 201.971 154.168 202.66 150.541C203.077 148.345 202.971 135.661 201.751 134.457L137.765 107.969C118.283 116.556 97.0735 123.553 77.9021 132.64C76.3032 133.397 72.9993 134.631 72.4916 136.32C72.0142 137.903 72.1128 150.435 72.7265 151.692C74.2193 154.759 78.6295 151.889 79.1675 152.457V195.619C69.3015 193.257 72.6432 202.048 71.5672 203.162C71.3095 203.427 67.1949 202.889 66.4144 205.206C65.846 206.895 66.6796 213.407 66.2931 213.793H61.739V126.703C61.739 126.309 69.3166 127.551 69.3166 125.567V113.451C69.3166 113.368 68.2633 112.316 68.18 112.316H33.7017V60.8232H242.087H242.095ZM59.4732 69.9101V94.1418H61.7465V80.5115C62.8453 80.3373 62.7771 81.8215 63.0347 82.6242C63.7167 84.7141 65.1337 93.0665 66.2628 93.7934C66.9221 94.2175 69.7561 94.3992 70.0516 94.1191C70.3472 93.8389 71.3702 87.2206 71.8097 85.6531C72.1961 84.2749 72.6735 81.193 73.8708 80.519V94.1493H79.9329V69.9177C78.5689 70.1903 73.7798 69.4861 73.1888 69.9934C72.6887 70.425 70.817 81.2233 69.7031 82.7983C68.9529 82.7983 67.0206 70.5538 66.1946 70.0161C65.2398 69.3952 61.0267 70.2357 59.4732 69.9177V69.9101ZM97.3615 69.9101H91.2994V89.977C91.2994 95.6335 107.212 95.6335 107.212 89.977V69.9101H104.939V88.4625C104.939 92.0518 97.3615 92.0518 97.3615 88.4625V69.9101ZM129.953 77.4825C130.567 78.0429 132.969 77.3765 132.984 75.6273C133.045 67.7368 116.093 66.6237 117.874 78.5654C118.927 85.6153 127.467 84.9867 128.324 88.6215C129.18 92.2562 125.649 92.5137 122.906 91.711C120.163 90.9084 120.867 87.2888 120.86 85.0549C117.412 84.9186 117.116 87.6749 117.995 90.5752C119.746 96.3983 134.515 96.0879 133.795 86.1983C133.264 78.9137 123.33 78.27 122.497 75.4455C121.413 71.7578 125.043 71.7048 127.755 72.5226C130.468 73.3404 129.46 77.0206 129.968 77.4825H129.953ZM157.983 69.9101H143.585V94.1418H159.498C159.65 94.1418 159.604 91.2264 159.498 91.1128C159.188 90.7872 151.837 91.3476 150.397 91.1128C150.625 89.7574 150.094 83.0785 150.397 82.7756C151.087 82.0865 157.816 84.5703 157.225 80.1328C157.111 79.2696 151.58 79.9738 150.397 79.7542V72.9315C154.088 72.3711 159.218 74.976 157.983 69.9101ZM175.411 69.9101H168.591V88.4625C168.591 93.8086 177.116 95.2473 181.276 93.5663C182.337 93.1346 185.262 90.0754 185.262 89.2197V69.9101H182.989V87.7052C182.989 92.1275 175.411 92.3547 175.411 89.2197V69.9101ZM195.871 71.046C194.969 73.9689 195.871 89.6589 195.871 94.1418C195.871 94.2932 198.902 94.2932 198.902 94.1418V82.0259L202.297 93.3997L206.04 94.1948L210.268 80.519V94.1493H216.331V69.9177C214.967 70.1903 210.177 69.4861 209.586 69.9934C209.086 70.425 206.98 81.0643 206.472 82.7908L202.592 70.0237C201.024 69.8344 196.386 69.3952 195.871 71.0611V71.046Z" fill="#DBCBA4"/>
<path d="M181.474 195.612H157.225V157.371C157.225 151.533 143.388 141.969 137.902 141.946C135.864 141.946 128.385 145.785 126.536 147.148C124.687 148.511 118.579 155.432 118.579 157.371V195.612H95.0884V144.877L137.773 126.877L181.474 146.012V195.612Z" fill="#DBCBA4"/>
<path d="M254.976 4.78809H20.8271V56.2804H254.976V4.78809Z" fill="#DBCBA4"/>
<path d="M152.678 195.612H123.883V158.129C123.883 154.653 134.727 147.308 137.887 147.232C141.986 147.133 152.678 155.296 152.678 159.643V195.612Z" fill="#DBCBA4"/>
<path d="M197.257 138.19C197.598 138.743 197.522 144.135 197.386 145.278C197.265 146.316 197.78 146.641 196.34 146.323L137.197 121.418C117.298 129.588 97.8991 139.152 77.6592 146.399L78.1214 137.994L137.151 113.785C157.603 120.789 177.184 130.194 197.25 138.198L197.257 138.19Z" fill="#DBCBA4"/>
<path d="M204.964 208.485C204.964 209.749 205.404 215.3 203.828 215.3H71.5977V208.485H204.964Z" fill="#D8C29D"/>
<path d="M206.48 219.844H69.3242V224.387H206.48V219.844Z" fill="#D8C29D"/>
<path d="M235.274 126.703V213.786H228.454V127.839C228.454 126.264 234.009 126.703 235.274 126.703Z" fill="#D8C29D"/>
<path d="M254.219 126.703V213.786H247.399V127.839C247.399 126.264 252.953 126.703 254.219 126.703Z" fill="#D8C29D"/>
<path d="M29.9205 126.703H23.8584V213.785H29.9205V126.703Z" fill="#DBCBA4"/>
<path d="M48.8641 126.703H42.802V213.785H48.8641V126.703Z" fill="#DBCBA4"/>
<path d="M198.902 200.912C199.008 201.018 199.054 203.941 198.902 203.941H76.9022C76.7507 203.941 76.7507 200.912 76.9022 200.912H198.902Z" fill="#D8C29D"/>
<path d="M90.5416 147.148V195.233C90.5416 196.808 84.9871 196.369 83.7217 196.369V149.42C83.7217 149.064 89.7232 147.39 90.5416 147.148Z" fill="#D8C29D"/>
<path d="M64.7781 219.087C64.9069 220.155 64.9827 224.388 63.6414 224.388H6.43018V219.087H64.7781Z" fill="#D8C29D"/>
<path d="M270.132 219.087C270.261 220.155 270.337 224.388 268.995 224.388H211.784V219.087H270.132Z" fill="#D8C29D"/>
<path d="M6.43018 122.16V116.859H63.6414C65.1873 116.859 65.1873 122.16 63.6414 122.16H6.43018Z" fill="#D8C29D"/>
<path d="M211.784 122.16V116.859H268.995C270.541 116.859 270.541 122.16 268.995 122.16H211.784Z" fill="#D8C29D"/>
<path d="M192.84 150.177V195.612H186.778V147.906L192.84 150.177Z" fill="#DCCCA5"/>
<path d="M37.4981 126.703V213.786C37.4981 213.937 34.467 213.937 34.467 213.786V126.703C34.467 126.552 36.9525 126.802 37.4981 126.703Z" fill="#D8C29D"/>
<path d="M56.4427 126.703V213.786C56.4427 213.937 53.4116 213.937 53.4116 213.786V126.703C53.4116 126.552 55.8971 126.802 56.4427 126.703Z" fill="#D8C29D"/>
<path d="M223.908 126.703V213.786C223.908 213.937 220.877 213.937 220.877 213.786V126.703C220.877 126.552 223.362 126.802 223.908 126.703Z" fill="#D8C29D"/>
<path d="M242.853 126.703V213.786C242.853 213.937 239.822 213.937 239.822 213.786V126.703C239.822 126.552 242.307 126.802 242.853 126.703Z" fill="#D8C29D"/>
<path d="M261.796 126.703V213.786C261.796 213.937 258.765 213.937 258.765 213.786V126.703C258.765 126.552 261.251 126.802 261.796 126.703Z" fill="#D8C29D"/>
<path d="M18.554 126.703V213.786C18.554 213.937 15.5229 213.937 15.5229 213.786V126.703C15.5229 126.552 18.0084 126.802 18.554 126.703Z" fill="#D8C29D"/>
<path d="M195.871 71.0465C196.386 69.3806 201.016 69.8274 202.592 70.0091L206.472 82.7761C206.98 81.0572 209.086 70.4104 209.587 69.9788C210.178 69.4715 214.974 70.1757 216.331 69.9031V94.1347H210.269V80.5044L206.04 94.1802L202.297 93.3851L198.902 82.0113V94.1272C198.902 94.2786 195.871 94.2786 195.871 94.1272C195.871 89.6443 194.969 73.9543 195.871 71.0314V71.0465Z" fill="#3E3E3E"/>
<path d="M59.4734 69.9099C61.0192 70.228 65.24 69.3874 66.1948 70.0084C67.0283 70.546 68.9606 82.7906 69.7032 82.7906C70.8171 81.2155 72.6812 70.4173 73.1889 69.9857C73.78 69.4783 78.5691 70.1825 79.933 69.9099V94.1416H73.8709V80.5113C72.6737 81.1852 72.1963 84.2672 71.8098 85.6454C71.3703 87.2129 70.3701 93.816 70.0518 94.1113C69.7335 94.4066 66.9146 94.2173 66.263 93.7857C65.1415 93.0587 63.7169 84.7064 63.0349 82.6164C62.7772 81.8137 62.8454 80.3295 61.7467 80.5037V94.134H59.4734V69.9024V69.9099Z" fill="#3E3E3E"/>
<path d="M157.983 69.9102C159.218 74.9837 154.096 72.3712 150.398 72.9315V79.7543C151.58 79.9739 157.111 79.2696 157.225 80.1329C157.816 84.5703 151.087 82.0866 150.398 82.7757C150.095 83.0785 150.625 89.7574 150.398 91.1129C151.837 91.3476 159.188 90.7797 159.498 91.1129C159.604 91.2189 159.65 94.1418 159.498 94.1418H143.585V69.9102H157.983Z" fill="#3E3E3E"/>
<path d="M129.953 77.4823C129.445 77.0204 130.392 73.3251 127.74 72.5224C125.088 71.7197 121.405 71.7576 122.481 75.4453C123.307 78.2699 133.249 78.9135 133.779 86.1982C134.499 96.0953 119.73 96.4057 117.98 90.575C117.109 87.6672 117.397 84.9184 120.844 85.0547C120.852 87.2886 120.162 90.9158 122.89 91.7109C125.618 92.506 129.142 92.1652 128.308 88.6213C127.475 85.0774 118.912 85.6151 117.859 78.5652C116.078 66.6235 133.029 67.7442 132.969 75.6271C132.953 77.3763 130.559 78.0427 129.938 77.4823H129.953Z" fill="#3E3E3E"/>
<path d="M175.411 69.9102V89.2198C175.411 92.3547 182.989 92.1276 182.989 87.7053V69.9102H185.262V89.2198C185.262 90.0754 182.337 93.1423 181.277 93.5663C177.109 95.2474 168.592 93.8086 168.592 88.4625V69.9102H175.411Z" fill="#3E3E3E"/>
<path d="M97.3614 69.9102V88.4625C97.3614 92.0518 104.939 92.0518 104.939 88.4625V69.9102H107.212V89.977C107.212 95.6336 91.2993 95.6336 91.2993 89.977V69.9102H97.3614Z" fill="#3E3E3E"/>
<path d="M88.6849 13.5715H102.65C102.847 13.5715 102.938 13.7154 102.938 14.3439C102.938 14.9724 102.84 15.1163 102.65 15.1163H99.8846C98.4297 15.1163 98.2857 15.2602 98.2857 16.7141V37.7426C98.2857 44.3836 101.484 46.7538 106.818 46.7538C112.153 46.7538 115.351 44.376 115.351 37.7426V20.9773C115.351 17.0018 115.01 16.3279 110.554 15.1163C110.357 15.0709 110.266 14.9194 110.266 14.3439C110.266 13.7684 110.365 13.5715 110.554 13.5715H121.708C121.951 13.5715 121.996 13.7684 121.996 14.3439C121.996 14.9194 121.951 15.0254 121.708 15.1163C117.685 16.3279 117.344 17.0094 117.344 20.9773V37.8411C117.344 45.2544 113.32 49.0331 105.03 49.0331C97.2703 49.0331 92.6177 45.2544 92.6177 37.8411V16.7141C92.6177 15.2602 92.4737 15.1163 91.0188 15.1163H88.7379C88.5409 15.1163 88.45 14.9724 88.45 14.3439C88.45 13.7154 88.5485 13.5715 88.6924 13.5715H88.6849Z" fill="#3E3E3E"/>
<path d="M135.431 12.9888C137.758 12.9888 139.213 13.5719 141.008 14.5411C141.637 14.8819 142.175 15.0712 142.66 15.0712C143.289 15.0712 143.676 14.7834 144.161 13.8596C144.259 13.6627 144.305 13.5719 144.888 13.5719C145.472 13.5719 145.616 13.6703 145.616 13.8596V22.583C145.616 22.7799 145.472 22.8708 144.888 22.8708C144.305 22.8708 144.161 22.7723 144.062 22.583C141.834 17.252 139.698 14.5866 135.628 14.5866C132.378 14.5866 130.097 16.669 130.097 19.6298C130.097 22.8783 131.355 25.3015 136.788 27.3839C144.593 30.3371 147.359 33.3964 147.359 38.5759C147.359 44.4899 142.895 49.0409 136.447 49.0409C134.12 49.0409 131.938 48.4124 129.854 47.3902C129.271 47.1024 128.498 46.951 128.058 46.951C127.528 46.951 127.088 47.0494 126.603 48.1625C126.505 48.3594 126.459 48.4503 125.876 48.4503C125.292 48.4503 125.148 48.3519 125.148 48.1625V37.546C125.148 37.3492 125.292 37.2583 125.876 37.2583C126.459 37.2583 126.649 37.3567 126.702 37.546C129.369 45.3002 132.476 47.3826 136.401 47.3826C140.91 47.3826 143.577 44.2779 143.577 41.0369C143.577 36.963 141.683 35.0244 134.704 32.359C129.028 30.1781 126.414 27.1264 126.414 22.5679C126.414 17.3353 129.612 12.9736 135.431 12.9736V12.9888Z" fill="#3E3E3E"/>
<path d="M168.751 12.9888C178.063 12.9888 185.338 20.546 185.338 31.0186C185.338 41.4913 178.063 49.0485 168.751 49.0485C159.438 49.0485 152.163 41.4913 152.163 31.0186C152.163 20.546 159.15 12.9888 168.751 12.9888ZM162.203 44.8761C163.855 46.5269 166.038 47.3977 168.751 47.3977C171.463 47.3977 173.646 46.5269 175.298 44.8761C177.624 42.5514 178.791 38.7198 178.791 31.0186C178.791 23.3175 177.624 19.4859 175.298 17.1612C173.646 15.5104 171.463 14.6396 168.751 14.6396C166.038 14.6396 163.855 15.5104 162.203 17.1612C159.877 19.4859 158.71 23.3175 158.71 31.0186C158.71 38.7198 159.877 42.5514 162.203 44.8761Z" fill="#3E3E3E"/>
</svg>
